<?xml version="1.0" standalone="no"?>
<!DOCTYPE svg PUBLIC "-//W3C//DTD SVG 20010904//EN"
 "http://www.w3.org/TR/2001/REC-SVG-20010904/DTD/svg10.dtd">
<svg version="1.0" xmlns="http://www.w3.org/2000/svg"
 width="328.000000pt" height="328.000000pt" viewBox="0 0 328.000000 328.000000"
 preserveAspectRatio="xMidYMid meet">
<metadata>
Created by potrace 1.14, written by Peter Selinger 2001-2017
</metadata>
<g transform="translate(0.000000,328.000000) scale(0.100000,-0.100000)"
fill="#000000" stroke="none">
<path d="M2005 2539 c-89 -20 -125 -52 -125 -112 0 -29 42 -67 75 -67 31 0 33
-16 2 -24 -50 -12 -218 -96 -212 -106 4 -6 -6 -10 -22 -10 -30 0 -166 -61
-177 -79 -4 -6 -14 -11 -23 -11 -24 0 -420 -201 -453 -230 -22 -19 -30 -37
-35 -77 -7 -52 -7 -52 28 -69 32 -15 61 -16 309 -7 236 8 274 8 283 -5 38 -55
42 -57 107 -58 34 -1 68 -2 75 -3 7 -1 24 -18 38 -38 23 -35 25 -46 25 -148 0
-138 11 -180 61 -226 l39 -36 8 -121 c8 -115 10 -124 40 -166 18 -24 32 -51
32 -60 0 -13 27 -24 31 -13 0 1 3 72 5 157 3 93 11 176 20 209 9 30 14 85 13
125 -4 145 -2 203 9 271 6 39 15 99 19 135 l8 65 45 11 c56 14 64 8 82 -66 12
-52 15 -55 43 -54 17 0 38 4 47 8 18 8 30 -12 58 -99 7 -22 17 -49 21 -60 5
-11 12 -67 16 -124 5 -65 12 -106 20 -108 15 -5 20 38 11 102 -9 65 -10 337
-2 440 l7 80 46 -3 c25 -1 69 -5 96 -10 l50 -7 5 -90 c4 -76 8 -90 23 -93 17
-3 18 5 15 116 -3 112 -1 122 20 151 29 39 28 70 -4 136 -37 75 -76 119 -156
175 -69 48 -272 136 -384 165 -27 7 -71 20 -97 29 -52 18 -82 19 -142 5z m175
-46 c160 -42 355 -121 426 -173 63 -46 77 -59 112 -104 25 -33 21 -46 -14 -46
-38 0 -80 -26 -103 -63 -25 -40 -26 -47 -7 -47 8 0 24 15 35 34 12 19 28 37
37 40 27 10 89 7 102 -6 10 -10 18 -66 10 -69 -2 0 -39 -4 -83 -9 -44 -4 -90
-11 -102 -15 -18 -6 -23 -3 -23 9 0 22 -68 113 -114 154 -63 55 -190 110 -361
156 -160 43 -185 54 -185 80 0 31 20 55 55 66 43 13 151 9 215 -7z m-60 -175
c65 -21 222 -79 251 -94 42 -21 94 -69 134 -124 l36 -49 -20 -28 c-17 -24 -21
-51 -28 -198 l-8 -170 -21 55 c-23 58 -20 57 -93 48 -22 -3 -26 3 -40 64 -19
78 -38 101 -80 100 -72 -2 -94 -44 -110 -211 -7 -63 -16 -122 -22 -133 -7 -12
-8 -66 -4 -146 6 -101 4 -139 -9 -188 -9 -34 -16 -102 -16 -150 0 -108 -7
-139 -26 -123 -16 14 -22 45 -28 174 l-5 100 -40 35 c-53 46 -61 72 -61 194 0
136 -6 161 -50 207 -37 39 -37 39 -97 33 -65 -7 -69 -5 -103 53 -31 52 -72 59
-268 45 -186 -14 -265 -15 -311 -6 -26 5 -31 11 -31 35 0 36 14 45 238 158
244 122 254 125 305 99 22 -11 66 -23 97 -25 50 -5 59 -3 88 22 40 34 40 58 2
97 -17 17 -30 31 -28 33 8 5 217 94 243 103 30 10 41 9 105 -10z m-342 -144
c65 -45 -26 -94 -119 -63 -49 17 -56 26 -33 44 44 34 118 43 152 19z m792
-174 c0 -5 -2 -10 -4 -10 -2 0 -12 -3 -20 -6 -12 -5 -15 -2 -10 10 7 17 34 22
34 6z m150 -5 c0 -20 -50 -20 -76 0 -18 13 -15 14 29 15 35 0 47 -4 47 -15z
m-460 -105 c0 -5 -7 -10 -16 -10 -8 0 -12 5 -9 10 3 6 10 10 16 10 5 0 9 -4 9
-10z m-777 -107 c-7 -2 -21 -2 -30 0 -10 3 -4 5 12 5 17 0 24 -2 18 -5z"/>
<path d="M1969 2235 c-45 -15 -88 -49 -75 -62 3 -4 25 4 49 17 30 18 57 24 95
23 54 0 66 9 33 27 -25 13 -45 12 -102 -5z"/>
<path d="M2108 2189 c-27 -16 -22 -60 13 -102 l30 -37 85 0 c97 0 154 18 154
49 0 37 -13 53 -64 77 -40 19 -68 24 -126 24 -41 -1 -83 -5 -92 -11z m194 -33
c95 -40 67 -76 -57 -76 -79 0 -82 1 -104 31 -35 47 -23 59 57 59 38 0 85 -6
104 -14z"/>
<path d="M1910 2090 c-27 -27 -13 -52 40 -74 33 -13 49 -14 80 -6 21 6 40 17
43 25 9 23 -25 55 -68 65 -59 14 -73 12 -95 -10z m90 -40 c0 -5 -7 -7 -15 -4
-8 4 -15 8 -15 10 0 2 7 4 15 4 8 0 15 -4 15 -10z"/>
<path d="M1495 2053 c-31 -8 -65 -44 -65 -69 0 -45 80 -59 138 -24 30 19 44
50 22 50 -6 0 -15 11 -20 25 -10 25 -28 29 -75 18z m27 -65 c-6 -6 -15 -8 -19
-4 -4 4 -1 11 7 16 19 12 27 3 12 -12z"/>
<path d="M1865 1992 c-17 -9 -65 -18 -110 -21 -44 -4 -80 -10 -80 -16 0 -17
123 -17 176 0 27 9 52 21 55 27 12 20 -12 26 -41 10z"/>
<path d="M1256 1907 c9 -24 104 -40 104 -18 0 14 -9 18 -62 25 -40 6 -47 5
-42 -7z"/>
<path d="M1722 1789 c2 -18 9 -34 16 -37 10 -3 13 5 10 29 -2 18 -9 34 -16 37
-10 3 -13 -5 -10 -29z"/>
<path d="M1954 1643 c12 -111 18 -134 29 -130 23 8 -1 187 -25 187 -7 0 -8
-19 -4 -57z"/>
<path d="M1464 2446 c-11 -9 -15 -21 -11 -34 3 -12 1 -25 -4 -28 -17 -10 -9
-34 11 -34 13 0 22 -9 27 -31 5 -16 13 -29 18 -27 11 3 12 35 1 59 -5 12 -1
18 13 22 32 8 25 27 -9 27 -28 0 -40 13 -22 24 13 8 112 -41 118 -59 6 -14 34
-22 34 -9 0 48 -137 118 -176 90z"/>
<path d="M1303 2390 c-38 -15 -28 -33 13 -25 44 8 43 -10 -2 -36 -40 -24 -64
-24 -64 0 0 11 -5 23 -11 26 -17 11 -80 -5 -86 -21 -8 -22 1 -26 31 -13 40 18
45 1 8 -29 -35 -29 -40 -42 -18 -42 8 0 16 -10 18 -22 2 -19 10 -24 45 -26 43
-3 88 12 78 27 -2 5 -25 6 -49 4 -42 -5 -44 -4 -39 17 5 20 41 42 73 44 8 1
17 -10 20 -24 3 -17 13 -26 29 -28 37 -6 111 18 111 35 0 11 -7 13 -26 9 -88
-22 -105 -17 -66 22 10 10 18 32 17 52 0 32 -3 35 -30 37 -16 1 -40 -2 -52 -7z"/>
<path d="M1076 2321 c-3 -5 5 -33 19 -63 14 -29 25 -61 25 -70 0 -10 7 -18 15
-18 21 0 19 20 -12 95 -26 63 -36 75 -47 56z"/>
<path d="M993 2287 c-25 -9 -31 -16 -29 -35 2 -14 10 -29 20 -34 9 -5 14 -13
11 -17 -7 -12 39 -94 50 -90 6 2 8 11 7 19 -2 8 -3 24 -3 35 9 141 8 143 -56
122z m37 -49 c0 -19 -2 -20 -10 -8 -13 19 -13 30 0 30 6 0 10 -10 10 -22z"/>
<path d="M875 1830 c-8 -16 -15 -36 -15 -45 0 -11 -11 -5 -34 19 -41 44 -68
45 -108 6 -24 -24 -29 -36 -24 -57 15 -56 61 -97 133 -115 26 -7 53 -19 59
-28 16 -20 37 -2 75 65 39 68 39 117 0 156 -38 37 -66 37 -86 -1z m67 -17 c22
-20 23 -69 3 -110 -26 -53 -37 -57 -102 -38 -90 26 -137 81 -106 125 23 33 54
21 90 -35 40 -61 57 -64 61 -10 5 86 17 101 54 68z"/>
<path d="M1115 1594 c-105 -22 -162 -46 -213 -88 -35 -30 -43 -64 -43 -178 0
-62 5 -87 21 -115 37 -63 19 -122 -45 -150 -31 -13 -65 -16 -152 -15 -100 3
-114 1 -132 -17 -24 -24 -18 -56 17 -79 42 -28 209 -29 313 -3 106 27 154 58
168 108 19 68 13 98 -41 201 l-51 100 19 33 c14 25 40 44 100 74 92 45 124 70
124 96 0 30 -35 43 -85 33z m48 -39 c1 -6 -22 -22 -52 -37 -51 -26 -54 -27
-77 -10 -13 9 -24 20 -24 23 0 10 119 39 143 35 5 -1 9 -6 10 -11z m-168 -57
c14 -6 25 -14 25 -17 0 -3 -16 -18 -34 -34 -31 -24 -38 -26 -60 -15 -33 15
-33 31 2 57 32 24 34 24 67 9z m-66 -102 c15 -18 3 -46 -20 -46 -14 0 -19 7
-19 30 0 32 19 40 39 16z m16 -126 c-28 -12 -55 -12 -55 0 0 6 17 10 38 9 30
0 33 -2 17 -9z m10 -40 c-11 -5 -27 -9 -35 -9 -13 -1 -13 0 0 9 8 5 24 9 35 9
l20 0 -20 -9z m69 -72 c12 -49 0 -104 -31 -132 -26 -25 -101 -50 -183 -62
l-45 -7 35 36 c34 36 65 52 40 22 -7 -9 -10 -18 -7 -21 10 -10 37 4 43 23 3
10 8 24 10 32 4 11 7 12 16 3 21 -21 31 -13 25 21 -5 28 -5 29 5 10 17 -35 41
-30 33 7 -5 24 -3 30 10 30 12 0 16 6 12 20 -3 11 -1 23 5 26 5 3 7 13 4 21
-4 9 -1 13 6 11 7 -3 17 -20 22 -40z m-381 -145 c-20 -7 -16 -35 5 -31 9 2 16
11 16 21 -2 18 22 23 45 8 10 -6 10 -10 1 -16 -6 -4 -9 -13 -6 -21 7 -17 -41
-19 -96 -3 -59 16 -51 50 11 48 20 0 30 -3 24 -6z m117 -49 c0 -2 -9 -4 -21
-4 -11 0 -18 4 -14 10 5 8 35 3 35 -6z"/>
</g>
</svg>
